<mxfile host="app.diagrams.net" modified="2020-03-31T07:56:20.129Z" agent="5.0 (Windows NT 10.0; Win64; x64) AppleWebKit/537.36 (KHTML, like Gecko) Chrome/80.0.3987.149 Safari/537.36" etag="y77m-yikHBnghI-953-M" version="12.9.5" type="github">
  <diagram id="ZrQ6kxfMAsjldOgsr2jE" name="Page-1">
    <mxGraphModel dx="1038" dy="580" grid="1" gridSize="10" guides="1" tooltips="1" connect="1" arrows="1" fold="1" page="1" pageScale="1" pageWidth="827" pageHeight="1169" math="0" shadow="0">
      <root>
        <mxCell id="0" />
        <mxCell id="1" parent="0" />
        <mxCell id="BDxRoM9541RLf6_tz3ki-2" value="client" style="swimlane;fontStyle=0;childLayout=stackLayout;horizontal=1;startSize=26;fillColor=#f8cecc;horizontalStack=0;resizeParent=1;resizeParentMax=0;resizeLast=0;collapsible=1;marginBottom=0;swimlaneFillColor=#ffffff;align=center;fontSize=14;strokeColor=#b85450;" vertex="1" parent="1">
          <mxGeometry x="40" y="360" width="130" height="230" as="geometry" />
        </mxCell>
        <mxCell id="BDxRoM9541RLf6_tz3ki-3" value="idClient" style="text;strokeColor=none;fillColor=none;spacingLeft=4;spacingRight=4;overflow=hidden;rotatable=0;points=[[0,0.5],[1,0.5]];portConstraint=eastwest;fontSize=12;" vertex="1" parent="BDxRoM9541RLf6_tz3ki-2">
          <mxGeometry y="26" width="130" height="26" as="geometry" />
        </mxCell>
        <mxCell id="BDxRoM9541RLf6_tz3ki-4" value="nomClient" style="text;strokeColor=none;fillColor=none;spacingLeft=4;spacingRight=4;overflow=hidden;rotatable=0;points=[[0,0.5],[1,0.5]];portConstraint=eastwest;fontSize=12;" vertex="1" parent="BDxRoM9541RLf6_tz3ki-2">
          <mxGeometry y="52" width="130" height="26" as="geometry" />
        </mxCell>
        <mxCell id="BDxRoM9541RLf6_tz3ki-5" value="prenomClient&#xa;&#xa;emailClient&#xa;&#xa;mdpClient&#xa;&#xa;telClient&#xa;&#xa;residenceClient&#xa;" style="text;strokeColor=none;fillColor=none;spacingLeft=4;spacingRight=4;overflow=hidden;rotatable=0;points=[[0,0.5],[1,0.5]];portConstraint=eastwest;fontSize=12;" vertex="1" parent="BDxRoM9541RLf6_tz3ki-2">
          <mxGeometry y="78" width="130" height="152" as="geometry" />
        </mxCell>
        <mxCell id="BDxRoM9541RLf6_tz3ki-7" value="panier" style="swimlane;fontStyle=0;childLayout=stackLayout;horizontal=1;startSize=26;fillColor=#e0e0e0;horizontalStack=0;resizeParent=1;resizeParentMax=0;resizeLast=0;collapsible=1;marginBottom=0;swimlaneFillColor=#ffffff;align=center;fontSize=14;" vertex="1" parent="1">
          <mxGeometry x="310" y="400" width="160" height="78" as="geometry" />
        </mxCell>
        <mxCell id="BDxRoM9541RLf6_tz3ki-8" value="idPanier" style="text;strokeColor=none;fillColor=none;spacingLeft=4;spacingRight=4;overflow=hidden;rotatable=0;points=[[0,0.5],[1,0.5]];portConstraint=eastwest;fontSize=12;" vertex="1" parent="BDxRoM9541RLf6_tz3ki-7">
          <mxGeometry y="26" width="160" height="26" as="geometry" />
        </mxCell>
        <mxCell id="BDxRoM9541RLf6_tz3ki-9" value="validerPanier" style="text;strokeColor=none;fillColor=none;spacingLeft=4;spacingRight=4;overflow=hidden;rotatable=0;points=[[0,0.5],[1,0.5]];portConstraint=eastwest;fontSize=12;" vertex="1" parent="BDxRoM9541RLf6_tz3ki-7">
          <mxGeometry y="52" width="160" height="26" as="geometry" />
        </mxCell>
        <mxCell id="BDxRoM9541RLf6_tz3ki-11" value="" style="line;strokeWidth=2;html=1;" vertex="1" parent="1">
          <mxGeometry x="170" y="420" width="140" height="10" as="geometry" />
        </mxCell>
        <mxCell id="BDxRoM9541RLf6_tz3ki-12" value="detient" style="ellipse;shape=doubleEllipse;whiteSpace=wrap;html=1;" vertex="1" parent="1">
          <mxGeometry x="200" y="397.5" width="80" height="55" as="geometry" />
        </mxCell>
        <mxCell id="BDxRoM9541RLf6_tz3ki-13" value="(0,n)" style="text;html=1;strokeColor=none;fillColor=none;align=center;verticalAlign=middle;whiteSpace=wrap;rounded=0;" vertex="1" parent="1">
          <mxGeometry x="170" y="397.5" width="40" height="20" as="geometry" />
        </mxCell>
        <mxCell id="BDxRoM9541RLf6_tz3ki-14" value="(1;1)" style="text;html=1;strokeColor=none;fillColor=none;align=center;verticalAlign=middle;whiteSpace=wrap;rounded=0;" vertex="1" parent="1">
          <mxGeometry x="270" y="432.5" width="40" height="20" as="geometry" />
        </mxCell>
        <mxCell id="BDxRoM9541RLf6_tz3ki-15" value="facture" style="swimlane;fontStyle=0;childLayout=stackLayout;horizontal=1;startSize=26;fillColor=#e0e0e0;horizontalStack=0;resizeParent=1;resizeParentMax=0;resizeLast=0;collapsible=1;marginBottom=0;swimlaneFillColor=#ffffff;align=center;fontSize=14;" vertex="1" parent="1">
          <mxGeometry x="310" y="210" width="160" height="78" as="geometry" />
        </mxCell>
        <mxCell id="BDxRoM9541RLf6_tz3ki-16" value="idFacture" style="text;strokeColor=none;fillColor=none;spacingLeft=4;spacingRight=4;overflow=hidden;rotatable=0;points=[[0,0.5],[1,0.5]];portConstraint=eastwest;fontSize=12;" vertex="1" parent="BDxRoM9541RLf6_tz3ki-15">
          <mxGeometry y="26" width="160" height="26" as="geometry" />
        </mxCell>
        <mxCell id="BDxRoM9541RLf6_tz3ki-17" value="dateFacture" style="text;strokeColor=none;fillColor=none;spacingLeft=4;spacingRight=4;overflow=hidden;rotatable=0;points=[[0,0.5],[1,0.5]];portConstraint=eastwest;fontSize=12;" vertex="1" parent="BDxRoM9541RLf6_tz3ki-15">
          <mxGeometry y="52" width="160" height="26" as="geometry" />
        </mxCell>
        <mxCell id="BDxRoM9541RLf6_tz3ki-19" value="" style="line;strokeWidth=2;direction=south;html=1;" vertex="1" parent="1">
          <mxGeometry x="385" y="288" width="10" height="112" as="geometry" />
        </mxCell>
        <mxCell id="BDxRoM9541RLf6_tz3ki-20" value="comprend" style="ellipse;shape=doubleEllipse;whiteSpace=wrap;html=1;" vertex="1" parent="1">
          <mxGeometry x="350" y="316.5" width="80" height="55" as="geometry" />
        </mxCell>
        <mxCell id="BDxRoM9541RLf6_tz3ki-21" value="(1,1)" style="text;html=1;strokeColor=none;fillColor=none;align=center;verticalAlign=middle;whiteSpace=wrap;rounded=0;" vertex="1" parent="1">
          <mxGeometry x="330" y="288" width="40" height="20" as="geometry" />
        </mxCell>
        <mxCell id="BDxRoM9541RLf6_tz3ki-22" value="(0,1)" style="text;html=1;strokeColor=none;fillColor=none;align=center;verticalAlign=middle;whiteSpace=wrap;rounded=0;" vertex="1" parent="1">
          <mxGeometry x="400" y="377.5" width="40" height="20" as="geometry" />
        </mxCell>
        <mxCell id="BDxRoM9541RLf6_tz3ki-31" value="" style="line;strokeWidth=2;html=1;" vertex="1" parent="1">
          <mxGeometry x="470" y="434" width="130" height="10" as="geometry" />
        </mxCell>
        <mxCell id="BDxRoM9541RLf6_tz3ki-32" value="comporte" style="ellipse;shape=doubleEllipse;whiteSpace=wrap;html=1;" vertex="1" parent="1">
          <mxGeometry x="495" y="411.5" width="80" height="55" as="geometry" />
        </mxCell>
        <mxCell id="BDxRoM9541RLf6_tz3ki-23" value="produit" style="swimlane;fontStyle=0;childLayout=stackLayout;horizontal=1;startSize=26;fillColor=#f8cecc;horizontalStack=0;resizeParent=1;resizeParentMax=0;resizeLast=0;collapsible=1;marginBottom=0;swimlaneFillColor=#ffffff;align=center;fontSize=14;strokeColor=#b85450;" vertex="1" parent="1">
          <mxGeometry x="600" y="389" width="160" height="100" as="geometry" />
        </mxCell>
        <mxCell id="BDxRoM9541RLf6_tz3ki-24" value="idProduit" style="text;strokeColor=none;fillColor=none;spacingLeft=4;spacingRight=4;overflow=hidden;rotatable=0;points=[[0,0.5],[1,0.5]];portConstraint=eastwest;fontSize=12;" vertex="1" parent="BDxRoM9541RLf6_tz3ki-23">
          <mxGeometry y="26" width="160" height="26" as="geometry" />
        </mxCell>
        <mxCell id="BDxRoM9541RLf6_tz3ki-25" value="prixArticle" style="text;strokeColor=none;fillColor=none;spacingLeft=4;spacingRight=4;overflow=hidden;rotatable=0;points=[[0,0.5],[1,0.5]];portConstraint=eastwest;fontSize=12;" vertex="1" parent="BDxRoM9541RLf6_tz3ki-23">
          <mxGeometry y="52" width="160" height="26" as="geometry" />
        </mxCell>
        <mxCell id="BDxRoM9541RLf6_tz3ki-26" value="quantitÃ©Article&#xa;&#xa;" style="text;strokeColor=none;fillColor=none;spacingLeft=4;spacingRight=4;overflow=hidden;rotatable=0;points=[[0,0.5],[1,0.5]];portConstraint=eastwest;fontSize=12;" vertex="1" parent="BDxRoM9541RLf6_tz3ki-23">
          <mxGeometry y="78" width="160" height="22" as="geometry" />
        </mxCell>
        <mxCell id="BDxRoM9541RLf6_tz3ki-35" value="(0,n)&lt;span style=&quot;color: rgba(0 , 0 , 0 , 0) ; font-family: monospace ; font-size: 0px ; white-space: nowrap&quot;&gt;3CmxGraphModel%3E%3Croot%3E%3CmxCell%20id%3D%220%22%2F%3E%3CmxCell%20id%3D%221%22%20parent%3D%220%22%2F%3E%3CmxCell%20id%3D%222%22%20value%3D%22comprend%22%20style%3D%22ellipse%3Bshape%3DdoubleEllipse%3BwhiteSpace%3Dwrap%3Bhtml%3D1%3B%22%20vertex%3D%221%22%20parent%3D%221%22%3E%3CmxGeometry%20x%3D%22350%22%20y%3D%22316.5%22%20width%3D%2280%22%20height%3D%2255%22%20as%3D%22geometry%22%2F%3E%3C%2FmxCell%3E%3C%2Froot%3E%3C%2FmxGraphModel%3E)&lt;/span&gt;" style="text;html=1;strokeColor=none;fillColor=none;align=center;verticalAlign=middle;whiteSpace=wrap;rounded=0;" vertex="1" parent="1">
          <mxGeometry x="470" y="400" width="40" height="20" as="geometry" />
        </mxCell>
        <mxCell id="BDxRoM9541RLf6_tz3ki-36" value="(0,n)&lt;span style=&quot;color: rgba(0 , 0 , 0 , 0) ; font-family: monospace ; font-size: 0px ; white-space: nowrap&quot;&gt;3CmxGraphModel%3E%3Croot%3E%3CmxCell%20id%3D%220%22%2F%3E%3CmxCell%20id%3D%221%22%20parent%3D%220%22%2F%3E%3CmxCell%20id%3D%222%22%20value%3D%22comprend%22%20style%3D%22ellipse%3Bshape%3DdoubleEllipse%3BwhiteSpace%3Dwrap%3Bhtml%3D1%3B%22%20vertex%3D%221%22%20parent%3D%221%22%3E%3CmxGeometry%20x%3D%22350%22%20y%3D%22316.5%22%20width%3D%2280%22%20height%3D%2255%22%20as%3D%22geometry%22%2F%3E%3C%2FmxCell%3E%3C%2Froot%3E%3C%2FmxGraphModel%3E)&lt;/span&gt;" style="text;html=1;strokeColor=none;fillColor=none;align=center;verticalAlign=middle;whiteSpace=wrap;rounded=0;" vertex="1" parent="1">
          <mxGeometry x="560" y="446.5" width="40" height="20" as="geometry" />
        </mxCell>
        <mxCell id="BDxRoM9541RLf6_tz3ki-64" value="ville" style="swimlane;fontStyle=0;childLayout=stackLayout;horizontal=1;startSize=26;fillColor=#e0e0e0;horizontalStack=0;resizeParent=1;resizeParentMax=0;resizeLast=0;collapsible=1;marginBottom=0;swimlaneFillColor=#ffffff;align=center;fontSize=14;strokeWidth=2;" vertex="1" parent="1">
          <mxGeometry x="40" y="30" width="160" height="100" as="geometry" />
        </mxCell>
        <mxCell id="BDxRoM9541RLf6_tz3ki-65" value="idVille" style="text;strokeColor=none;fillColor=none;spacingLeft=4;spacingRight=4;overflow=hidden;rotatable=0;points=[[0,0.5],[1,0.5]];portConstraint=eastwest;fontSize=12;" vertex="1" parent="BDxRoM9541RLf6_tz3ki-64">
          <mxGeometry y="26" width="160" height="26" as="geometry" />
        </mxCell>
        <mxCell id="BDxRoM9541RLf6_tz3ki-66" value="nomVille" style="text;strokeColor=none;fillColor=none;spacingLeft=4;spacingRight=4;overflow=hidden;rotatable=0;points=[[0,0.5],[1,0.5]];portConstraint=eastwest;fontSize=12;" vertex="1" parent="BDxRoM9541RLf6_tz3ki-64">
          <mxGeometry y="52" width="160" height="26" as="geometry" />
        </mxCell>
        <mxCell id="BDxRoM9541RLf6_tz3ki-67" value="CodeVille" style="text;strokeColor=none;fillColor=none;spacingLeft=4;spacingRight=4;overflow=hidden;rotatable=0;points=[[0,0.5],[1,0.5]];portConstraint=eastwest;fontSize=12;" vertex="1" parent="BDxRoM9541RLf6_tz3ki-64">
          <mxGeometry y="78" width="160" height="22" as="geometry" />
        </mxCell>
        <mxCell id="BDxRoM9541RLf6_tz3ki-79" value="photo" style="swimlane;fontStyle=0;childLayout=stackLayout;horizontal=1;startSize=26;fillColor=#e0e0e0;horizontalStack=0;resizeParent=1;resizeParentMax=0;resizeLast=0;collapsible=1;marginBottom=0;swimlaneFillColor=#ffffff;align=center;fontSize=14;strokeWidth=1;" vertex="1" parent="1">
          <mxGeometry x="660" y="30" width="160" height="78" as="geometry" />
        </mxCell>
        <mxCell id="BDxRoM9541RLf6_tz3ki-80" value="idPhoto" style="text;strokeColor=none;fillColor=none;spacingLeft=4;spacingRight=4;overflow=hidden;rotatable=0;points=[[0,0.5],[1,0.5]];portConstraint=eastwest;fontSize=12;" vertex="1" parent="BDxRoM9541RLf6_tz3ki-79">
          <mxGeometry y="26" width="160" height="26" as="geometry" />
        </mxCell>
        <mxCell id="BDxRoM9541RLf6_tz3ki-81" value="cheminPhoto" style="text;strokeColor=none;fillColor=none;spacingLeft=4;spacingRight=4;overflow=hidden;rotatable=0;points=[[0,0.5],[1,0.5]];portConstraint=eastwest;fontSize=12;" vertex="1" parent="BDxRoM9541RLf6_tz3ki-79">
          <mxGeometry y="52" width="160" height="26" as="geometry" />
        </mxCell>
        <mxCell id="BDxRoM9541RLf6_tz3ki-52" value="fournisseur" style="swimlane;fontStyle=0;childLayout=stackLayout;horizontal=1;startSize=26;fillColor=#f8cecc;horizontalStack=0;resizeParent=1;resizeParentMax=0;resizeLast=0;collapsible=1;marginBottom=0;swimlaneFillColor=#ffffff;align=center;fontSize=14;strokeWidth=1;strokeColor=#b85450;" vertex="1" parent="1">
          <mxGeometry x="360" y="30" width="160" height="100" as="geometry" />
        </mxCell>
        <mxCell id="BDxRoM9541RLf6_tz3ki-53" value="idFournisseur" style="text;strokeColor=none;fillColor=none;spacingLeft=4;spacingRight=4;overflow=hidden;rotatable=0;points=[[0,0.5],[1,0.5]];portConstraint=eastwest;fontSize=12;" vertex="1" parent="BDxRoM9541RLf6_tz3ki-52">
          <mxGeometry y="26" width="160" height="26" as="geometry" />
        </mxCell>
        <mxCell id="BDxRoM9541RLf6_tz3ki-54" value="nomFournisseur&#xa;&#xa;residenceFournisseur" style="text;strokeColor=none;fillColor=none;spacingLeft=4;spacingRight=4;overflow=hidden;rotatable=0;points=[[0,0.5],[1,0.5]];portConstraint=eastwest;fontSize=12;" vertex="1" parent="BDxRoM9541RLf6_tz3ki-52">
          <mxGeometry y="52" width="160" height="48" as="geometry" />
        </mxCell>
        <mxCell id="BDxRoM9541RLf6_tz3ki-37" value="commentaires" style="swimlane;fontStyle=0;childLayout=stackLayout;horizontal=1;startSize=26;fillColor=#e0e0e0;horizontalStack=0;resizeParent=1;resizeParentMax=0;resizeLast=0;collapsible=1;marginBottom=0;swimlaneFillColor=#ffffff;align=center;fontSize=14;" vertex="1" parent="1">
          <mxGeometry x="310" y="610" width="160" height="104" as="geometry" />
        </mxCell>
        <mxCell id="BDxRoM9541RLf6_tz3ki-38" value="idCommentaire" style="text;strokeColor=none;fillColor=none;spacingLeft=4;spacingRight=4;overflow=hidden;rotatable=0;points=[[0,0.5],[1,0.5]];portConstraint=eastwest;fontSize=12;" vertex="1" parent="BDxRoM9541RLf6_tz3ki-37">
          <mxGeometry y="26" width="160" height="26" as="geometry" />
        </mxCell>
        <mxCell id="BDxRoM9541RLf6_tz3ki-39" value="textCommentaire" style="text;strokeColor=none;fillColor=none;spacingLeft=4;spacingRight=4;overflow=hidden;rotatable=0;points=[[0,0.5],[1,0.5]];portConstraint=eastwest;fontSize=12;" vertex="1" parent="BDxRoM9541RLf6_tz3ki-37">
          <mxGeometry y="52" width="160" height="26" as="geometry" />
        </mxCell>
        <mxCell id="BDxRoM9541RLf6_tz3ki-40" value="dateCommentaire" style="text;strokeColor=none;fillColor=none;spacingLeft=4;spacingRight=4;overflow=hidden;rotatable=0;points=[[0,0.5],[1,0.5]];portConstraint=eastwest;fontSize=12;" vertex="1" parent="BDxRoM9541RLf6_tz3ki-37">
          <mxGeometry y="78" width="160" height="26" as="geometry" />
        </mxCell>
        <mxCell id="BDxRoM9541RLf6_tz3ki-41" value="" style="shape=partialRectangle;whiteSpace=wrap;html=1;top=0;left=0;fillColor=none;strokeWidth=2;direction=south;" vertex="1" parent="1">
          <mxGeometry x="100" y="590" width="210" height="90" as="geometry" />
        </mxCell>
        <mxCell id="BDxRoM9541RLf6_tz3ki-43" value="" style="shape=partialRectangle;whiteSpace=wrap;html=1;top=0;left=0;fillColor=none;strokeWidth=2;direction=east;" vertex="1" parent="1">
          <mxGeometry x="470" y="490" width="210" height="190" as="geometry" />
        </mxCell>
        <mxCell id="BDxRoM9541RLf6_tz3ki-44" value="Concerne" style="ellipse;shape=doubleEllipse;whiteSpace=wrap;html=1;" vertex="1" parent="1">
          <mxGeometry x="640" y="650" width="80" height="55" as="geometry" />
        </mxCell>
        <mxCell id="BDxRoM9541RLf6_tz3ki-45" value="(0,n)" style="text;html=1;strokeColor=none;fillColor=none;align=center;verticalAlign=middle;whiteSpace=wrap;rounded=0;" vertex="1" parent="1">
          <mxGeometry x="620" y="490" width="40" height="20" as="geometry" />
        </mxCell>
        <mxCell id="BDxRoM9541RLf6_tz3ki-46" value="(1,1)" style="text;html=1;strokeColor=none;fillColor=none;align=center;verticalAlign=middle;whiteSpace=wrap;rounded=0;" vertex="1" parent="1">
          <mxGeometry x="470" y="680" width="40" height="20" as="geometry" />
        </mxCell>
        <mxCell id="BDxRoM9541RLf6_tz3ki-49" value="(1,1)" style="text;html=1;strokeColor=none;fillColor=none;align=center;verticalAlign=middle;whiteSpace=wrap;rounded=0;" vertex="1" parent="1">
          <mxGeometry x="270" y="680" width="40" height="20" as="geometry" />
        </mxCell>
        <mxCell id="BDxRoM9541RLf6_tz3ki-50" value="(0,n)" style="text;html=1;strokeColor=none;fillColor=none;align=center;verticalAlign=middle;whiteSpace=wrap;rounded=0;" vertex="1" parent="1">
          <mxGeometry x="110" y="590" width="40" height="20" as="geometry" />
        </mxCell>
        <mxCell id="BDxRoM9541RLf6_tz3ki-51" value="Associer" style="ellipse;shape=doubleEllipse;whiteSpace=wrap;html=1;" vertex="1" parent="1">
          <mxGeometry x="60" y="650" width="80" height="55" as="geometry" />
        </mxCell>
        <mxCell id="BDxRoM9541RLf6_tz3ki-57" value="" style="endArrow=none;html=1;entryX=0.5;entryY=0;entryDx=0;entryDy=0;exitX=0.745;exitY=1.002;exitDx=0;exitDy=0;exitPerimeter=0;" edge="1" parent="1" source="BDxRoM9541RLf6_tz3ki-58" target="BDxRoM9541RLf6_tz3ki-23">
          <mxGeometry width="50" height="50" relative="1" as="geometry">
            <mxPoint x="525" y="369" as="sourcePoint" />
            <mxPoint x="575" y="319" as="targetPoint" />
          </mxGeometry>
        </mxCell>
        <mxCell id="BDxRoM9541RLf6_tz3ki-58" value="comprend" style="ellipse;shape=doubleEllipse;whiteSpace=wrap;html=1;direction=east;" vertex="1" parent="1">
          <mxGeometry x="520" y="222.5" width="80" height="55" as="geometry" />
        </mxCell>
        <mxCell id="BDxRoM9541RLf6_tz3ki-59" value="" style="endArrow=none;html=1;exitX=1;exitY=0;exitDx=0;exitDy=0;entryX=0.375;entryY=0.013;entryDx=0;entryDy=0;entryPerimeter=0;" edge="1" parent="1" source="BDxRoM9541RLf6_tz3ki-62" target="BDxRoM9541RLf6_tz3ki-58">
          <mxGeometry width="50" height="50" relative="1" as="geometry">
            <mxPoint x="535.52" y="111.79600000000005" as="sourcePoint" />
            <mxPoint x="620" y="280" as="targetPoint" />
          </mxGeometry>
        </mxCell>
        <mxCell id="BDxRoM9541RLf6_tz3ki-61" value="(0,1)" style="text;html=1;strokeColor=none;fillColor=none;align=center;verticalAlign=middle;whiteSpace=wrap;rounded=0;" vertex="1" parent="1">
          <mxGeometry x="670" y="357.5" width="40" height="20" as="geometry" />
        </mxCell>
        <mxCell id="BDxRoM9541RLf6_tz3ki-62" value="(0,n)" style="text;html=1;strokeColor=none;fillColor=none;align=center;verticalAlign=middle;whiteSpace=wrap;rounded=0;" vertex="1" parent="1">
          <mxGeometry x="455" y="130" width="40" height="20" as="geometry" />
        </mxCell>
        <mxCell id="BDxRoM9541RLf6_tz3ki-73" value="" style="line;strokeWidth=2;direction=south;html=1;" vertex="1" parent="1">
          <mxGeometry x="105" y="130" width="10" height="230" as="geometry" />
        </mxCell>
        <mxCell id="BDxRoM9541RLf6_tz3ki-70" value="habite" style="ellipse;shape=doubleEllipse;whiteSpace=wrap;html=1;direction=east;" vertex="1" parent="1">
          <mxGeometry x="70" y="210" width="80" height="55" as="geometry" />
        </mxCell>
        <mxCell id="BDxRoM9541RLf6_tz3ki-74" value="" style="line;strokeWidth=2;html=1;" vertex="1" parent="1">
          <mxGeometry x="200" y="75" width="160" height="10" as="geometry" />
        </mxCell>
        <mxCell id="BDxRoM9541RLf6_tz3ki-69" value="siÃ¨ge" style="ellipse;shape=doubleEllipse;whiteSpace=wrap;html=1;direction=east;" vertex="1" parent="1">
          <mxGeometry x="240" y="52.5" width="80" height="55" as="geometry" />
        </mxCell>
        <mxCell id="BDxRoM9541RLf6_tz3ki-75" value="(1,1)" style="text;html=1;strokeColor=none;fillColor=none;align=center;verticalAlign=middle;whiteSpace=wrap;rounded=0;" vertex="1" parent="1">
          <mxGeometry x="115" y="334" width="40" height="20" as="geometry" />
        </mxCell>
        <mxCell id="BDxRoM9541RLf6_tz3ki-76" value="(0,n)" style="text;html=1;strokeColor=none;fillColor=none;align=center;verticalAlign=middle;whiteSpace=wrap;rounded=0;" vertex="1" parent="1">
          <mxGeometry x="60" y="140" width="40" height="20" as="geometry" />
        </mxCell>
        <mxCell id="BDxRoM9541RLf6_tz3ki-77" value="(1,1)" style="text;html=1;strokeColor=none;fillColor=none;align=center;verticalAlign=middle;whiteSpace=wrap;rounded=0;" vertex="1" parent="1">
          <mxGeometry x="320" y="85" width="40" height="20" as="geometry" />
        </mxCell>
        <mxCell id="BDxRoM9541RLf6_tz3ki-78" value="(0,n)" style="text;html=1;strokeColor=none;fillColor=none;align=center;verticalAlign=middle;whiteSpace=wrap;rounded=0;" vertex="1" parent="1">
          <mxGeometry x="200" y="52.5" width="40" height="20" as="geometry" />
        </mxCell>
        <mxCell id="BDxRoM9541RLf6_tz3ki-83" value="" style="line;strokeWidth=2;direction=south;html=1;" vertex="1" parent="1">
          <mxGeometry x="735" y="110" width="10" height="280" as="geometry" />
        </mxCell>
        <mxCell id="BDxRoM9541RLf6_tz3ki-84" value="possÃ¨de" style="ellipse;shape=doubleEllipse;whiteSpace=wrap;html=1;direction=east;" vertex="1" parent="1">
          <mxGeometry x="700" y="221.5" width="80" height="55" as="geometry" />
        </mxCell>
        <mxCell id="BDxRoM9541RLf6_tz3ki-85" value="(1,n)" style="text;html=1;strokeColor=none;fillColor=none;align=center;verticalAlign=middle;whiteSpace=wrap;rounded=0;" vertex="1" parent="1">
          <mxGeometry x="745" y="357.5" width="40" height="20" as="geometry" />
        </mxCell>
        <mxCell id="BDxRoM9541RLf6_tz3ki-86" value="(1,1)" style="text;html=1;strokeColor=none;fillColor=none;align=center;verticalAlign=middle;whiteSpace=wrap;rounded=0;" vertex="1" parent="1">
          <mxGeometry x="690" y="110" width="40" height="20" as="geometry" />
        </mxCell>
      </root>
    </mxGraphModel>
  </diagram>
</mxfile>
